{
	"asset":{
		"generator":"Khronos glTF Blender I/O v4.1.63",
		"version":"2.0"
	},
	"scene":0,
	"scenes":[
		{
			"name":"Scene",
			"nodes":[
				2
			]
		}
	],
	"nodes":[
		{
			"mesh":0,
			"name":"Asteroid_Asteroid_0",
			"rotation":[
				1,
				0,
				0,
				5.587935447692871e-09
			],
			"translation":[
				0,
				0,
				-3.9637088775634766e-06
			]
		},
		{
			"children":[
				0
			],
			"name":"Object_4",
			"translation":[
				0,
				0,
				-20.000001907348633
			]
		},
		{
			"children":[
				1
			],
			"name":"Asteroid",
			"rotation":[
				-0.6637635231018066,
				-0.006611951161175966,
				-0.3373933434486389,
				0.6674878597259521
			],
			"scale":[
				0.3092060089111328,
				0.3092060089111328,
				0.3092060089111328
			]
		}
	],
	"materials":[
		{
			"doubleSided":true,
			"name":"Asteroid",
			"normalTexture":{
				"index":0
			},
			"pbrMetallicRoughness":{
				"baseColorTexture":{
					"index":1
				},
				"metallicFactor":0,
				"metallicRoughnessTexture":{
					"index":2
				},
				"roughnessFactor":0.8877099752426147
			}
		}
	],
	"meshes":[
		{
			"name":"Asteroid_Asteroid_0",
			"primitives":[
				{
					"attributes":{
						"POSITION":0,
						"NORMAL":1,
						"TEXCOORD_0":2
					},
					"indices":3,
					"material":0
				}
			]
		}
	],
	"textures":[
		{
			"sampler":0,
			"source":0
		},
		{
			"sampler":0,
			"source":1
		},
		{
			"sampler":0,
			"source":2
		}
	],
	"images":[
		{
			"mimeType":"image/png",
			"name":"Asteroid_normal",
			"uri":"textures/Asteroid_normal.png"
		},
		{
			"mimeType":"image/png",
			"name":"Asteroid_baseColor",
			"uri":"textures/Asteroid_baseColor.png"
		},
		{
			"mimeType":"image/png",
			"name":"Asteroid_metallicRoughness",
			"uri":"textures/Asteroid_metallicRoughness.png"
		}
	],
	"accessors":[
		{
			"bufferView":0,
			"componentType":5126,
			"count":3768,
			"max":[
				37.02090072631836,
				58.44598388671875,
				29.750396728515625
			],
			"min":[
				-40.01813888549805,
				-47.247779846191406,
				-28.248659133911133
			],
			"type":"VEC3"
		},
		{
			"bufferView":1,
			"componentType":5126,
			"count":3768,
			"type":"VEC3"
		},
		{
			"bufferView":2,
			"componentType":5126,
			"count":3768,
			"type":"VEC2"
		},
		{
			"bufferView":3,
			"componentType":5123,
			"count":21504,
			"type":"SCALAR"
		}
	],
	"bufferViews":[
		{
			"buffer":0,
			"byteLength":45216,
			"byteOffset":0,
			"target":34962
		},
		{
			"buffer":0,
			"byteLength":45216,
			"byteOffset":45216,
			"target":34962
		},
		{
			"buffer":0,
			"byteLength":30144,
			"byteOffset":90432,
			"target":34962
		},
		{
			"buffer":0,
			"byteLength":43008,
			"byteOffset":120576,
			"target":34963
		}
	],
	"samplers":[
		{
			"magFilter":9729,
			"minFilter":9987
		}
	],
	"buffers":[
		{
			"byteLength":163584,
			"uri":"scene.bin"
		}
	]
}
