{
	"asset":{
		"generator":"Khronos glTF Blender I/O v4.1.63",
		"version":"2.0"
	},
	"scene":0,
	"scenes":[
		{
			"name":"Scene",
			"nodes":[
				1
			]
		}
	],
	"nodes":[
		{
			"mesh":0,
			"name":"UFO_UFO_0",
			"scale":[
				0.5,
				0.5,
				0.5
			]
		},
		{
			"children":[
				0
			],
			"name":"UFO",
			"rotation":[
				-0.7071068286895752,
				0,
				0,
				0.7071068286895752
			],
			"scale":[
				0.2829129993915558,
				0.2829129993915558,
				0.2829129993915558
			]
		}
	],
	"materials":[
		{
			"doubleSided":true,
			"name":"material_23",
			"normalTexture":{
				"index":0
			},
			"pbrMetallicRoughness":{
				"baseColorTexture":{
					"index":1
				},
				"metallicFactor":0,
				"metallicRoughnessTexture":{
					"index":2
				}
			}
		}
	],
	"meshes":[
		{
			"name":"UFO_UFO_0",
			"primitives":[
				{
					"attributes":{
						"POSITION":0,
						"NORMAL":1,
						"TEXCOORD_0":2
					},
					"indices":3,
					"material":0
				}
			]
		}
	],
	"textures":[
		{
			"sampler":0,
			"source":0
		},
		{
			"sampler":0,
			"source":1
		},
		{
			"sampler":0,
			"source":2
		}
	],
	"images":[
		{
			"mimeType":"image/png",
			"name":"material_23_normal",
			"uri":"textures/material_23_normal.png"
		},
		{
			"mimeType":"image/png",
			"name":"material_23_baseColor",
			"uri":"textures/material_23_baseColor.png"
		},
		{
			"mimeType":"image/png",
			"name":"material_23_metallicRoughness",
			"uri":"textures/material_23_metallicRoughness.png"
		}
	],
	"accessors":[
		{
			"bufferView":0,
			"componentType":5126,
			"count":3943,
			"max":[
				62.12709045410156,
				62.12709045410156,
				34.83747100830078
			],
			"min":[
				-62.12709045410156,
				-62.12709045410156,
				-19.164478302001953
			],
			"type":"VEC3"
		},
		{
			"bufferView":1,
			"componentType":5126,
			"count":3943,
			"type":"VEC3"
		},
		{
			"bufferView":2,
			"componentType":5126,
			"count":3943,
			"type":"VEC2"
		},
		{
			"bufferView":3,
			"componentType":5123,
			"count":20640,
			"type":"SCALAR"
		}
	],
	"bufferViews":[
		{
			"buffer":0,
			"byteLength":47316,
			"byteOffset":0,
			"target":34962
		},
		{
			"buffer":0,
			"byteLength":47316,
			"byteOffset":47316,
			"target":34962
		},
		{
			"buffer":0,
			"byteLength":31544,
			"byteOffset":94632,
			"target":34962
		},
		{
			"buffer":0,
			"byteLength":41280,
			"byteOffset":126176,
			"target":34963
		}
	],
	"samplers":[
		{
			"magFilter":9729,
			"minFilter":9987
		}
	],
	"buffers":[
		{
			"byteLength":167456,
			"uri":"scene.bin"
		}
	]
}
