{
	"asset":{
		"generator":"Khronos glTF Blender I/O v4.1.63",
		"version":"2.0"
	},
	"scene":0,
	"scenes":[
		{
			"name":"Scene",
			"nodes":[
				1
			]
		}
	],
	"nodes":[
		{
			"mesh":0,
			"name":"Earth_Earth_0",
			"rotation":[
				0.16565179824829102,
				0.8544703125953674,
				0.43884721398353577,
				0.22327809035778046
			],
			"translation":[
				3.7279491424560547,
				0.5060487985610962,
				-5.209827899932861
			]
		},
		{
			"children":[
				0
			],
			"name":"Earth",
			"scale":[
				0.3120949864387512,
				0.3120949864387512,
				0.3120949864387512
			]
		}
	],
	"materials":[
		{
			"doubleSided":true,
			"name":"Earth",
			"normalTexture":{
				"index":0
			},
			"pbrMetallicRoughness":{
				"baseColorTexture":{
					"index":1
				},
				"metallicFactor":0,
				"metallicRoughnessTexture":{
					"index":2
				}
			}
		}
	],
	"meshes":[
		{
			"name":"Earth_Earth_0",
			"primitives":[
				{
					"attributes":{
						"POSITION":0,
						"NORMAL":1,
						"TEXCOORD_0":2
					},
					"indices":3,
					"material":0
				}
			]
		}
	],
	"textures":[
		{
			"sampler":0,
			"source":0
		},
		{
			"sampler":0,
			"source":1
		},
		{
			"sampler":0,
			"source":2
		}
	],
	"images":[
		{
			"mimeType":"image/png",
			"name":"Earth_normal",
			"uri":"textures/Earth_normal.png"
		},
		{
			"mimeType":"image/png",
			"name":"Earth_baseColor",
			"uri":"textures/Earth_baseColor.png"
		},
		{
			"mimeType":"image/png",
			"name":"Earth_metallicRoughness",
			"uri":"textures/Earth_metallicRoughness.png"
		}
	],
	"accessors":[
		{
			"bufferView":0,
			"componentType":5126,
			"count":8137,
			"max":[
				41.07541275024414,
				43.503177642822266,
				35.08918380737305
			],
			"min":[
				-38.65214538574219,
				-37.24968338012695,
				-45.31474685668945
			],
			"type":"VEC3"
		},
		{
			"bufferView":1,
			"componentType":5126,
			"count":8137,
			"type":"VEC3"
		},
		{
			"bufferView":2,
			"componentType":5126,
			"count":8137,
			"type":"VEC2"
		},
		{
			"bufferView":3,
			"componentType":5123,
			"count":45960,
			"type":"SCALAR"
		}
	],
	"bufferViews":[
		{
			"buffer":0,
			"byteLength":97644,
			"byteOffset":0,
			"target":34962
		},
		{
			"buffer":0,
			"byteLength":97644,
			"byteOffset":97644,
			"target":34962
		},
		{
			"buffer":0,
			"byteLength":65096,
			"byteOffset":195288,
			"target":34962
		},
		{
			"buffer":0,
			"byteLength":91920,
			"byteOffset":260384,
			"target":34963
		}
	],
	"samplers":[
		{
			"magFilter":9729,
			"minFilter":9987
		}
	],
	"buffers":[
		{
			"byteLength":352304,
			"uri":"scene.bin"
		}
	]
}
