{
	"asset":{
		"generator":"Khronos glTF Blender I/O v4.1.63",
		"version":"2.0"
	},
	"scene":0,
	"scenes":[
		{
			"name":"Scene",
			"nodes":[
				1
			]
		}
	],
	"nodes":[
		{
			"mesh":0,
			"name":"FullMoon_FullMoon_0"
		},
		{
			"children":[
				0
			],
			"name":"FullMoon",
			"rotation":[
				-0.6866258382797241,
				-0.1363377720117569,
				-0.1363377720117569,
				0.7009771466255188
			],
			"scale":[
				0.3239710032939911,
				0.3239710032939911,
				0.3239710032939911
			]
		}
	],
	"materials":[
		{
			"doubleSided":true,
			"name":"FullMoon",
			"normalTexture":{
				"index":0
			},
			"pbrMetallicRoughness":{
				"baseColorTexture":{
					"index":1
				},
				"metallicFactor":0,
				"metallicRoughnessTexture":{
					"index":2
				}
			}
		}
	],
	"meshes":[
		{
			"name":"FullMoon_FullMoon_0",
			"primitives":[
				{
					"attributes":{
						"POSITION":0,
						"NORMAL":1,
						"TEXCOORD_0":2
					},
					"indices":3,
					"material":0
				}
			]
		}
	],
	"textures":[
		{
			"sampler":0,
			"source":0
		},
		{
			"sampler":0,
			"source":1
		},
		{
			"sampler":0,
			"source":2
		}
	],
	"images":[
		{
			"mimeType":"image/png",
			"name":"FullMoon_normal",
			"uri":"textures/FullMoon_normal.png"
		},
		{
			"mimeType":"image/png",
			"name":"FullMoon_baseColor",
			"uri":"textures/FullMoon_baseColor.png"
		},
		{
			"mimeType":"image/png",
			"name":"FullMoon_metallicRoughness",
			"uri":"textures/FullMoon_metallicRoughness.png"
		}
	],
	"accessors":[
		{
			"bufferView":0,
			"componentType":5126,
			"count":5284,
			"max":[
				39.580570220947266,
				40.11421585083008,
				38.48639678955078
			],
			"min":[
				-39.6756591796875,
				-39.22579574584961,
				-40.67725372314453
			],
			"type":"VEC3"
		},
		{
			"bufferView":1,
			"componentType":5126,
			"count":5284,
			"type":"VEC3"
		},
		{
			"bufferView":2,
			"componentType":5126,
			"count":5284,
			"type":"VEC2"
		},
		{
			"bufferView":3,
			"componentType":5123,
			"count":30072,
			"type":"SCALAR"
		}
	],
	"bufferViews":[
		{
			"buffer":0,
			"byteLength":63408,
			"byteOffset":0,
			"target":34962
		},
		{
			"buffer":0,
			"byteLength":63408,
			"byteOffset":63408,
			"target":34962
		},
		{
			"buffer":0,
			"byteLength":42272,
			"byteOffset":126816,
			"target":34962
		},
		{
			"buffer":0,
			"byteLength":60144,
			"byteOffset":169088,
			"target":34963
		}
	],
	"samplers":[
		{
			"magFilter":9729,
			"minFilter":9987
		}
	],
	"buffers":[
		{
			"byteLength":229232,
			"uri":"scene.bin"
		}
	]
}
